<?xml version="1.0" standalone="no"?>
<!DOCTYPE svg PUBLIC "-//W3C//DTD SVG 20010904//EN"
 "http://www.w3.org/TR/2001/REC-SVG-20010904/DTD/svg10.dtd">
<svg version="1.0" xmlns="http://www.w3.org/2000/svg"
 width="635.000000pt" height="431.000000pt" viewBox="0 0 635.000000 431.000000"
 preserveAspectRatio="xMidYMid meet">
<metadata>
Created by potrace 1.16, written by Peter Selinger 2001-2019
</metadata>
<g transform="translate(0.000000,431.000000) scale(0.100000,-0.100000)"
fill="#000000" stroke="none">
<path d="M0 2155 l0 -2155 3175 0 3175 0 0 2155 0 2155 -3175 0 -3175 0 0
-2155z m3440 1502 c473 -113 807 -404 1066 -931 94 -193 147 -342 165 -465 14
-103 7 -332 -15 -454 -45 -248 -154 -478 -315 -665 -230 -267 -652 -498 -1034
-567 -134 -24 -467 -17 -637 14 -414 74 -656 280 -890 756 -161 328 -230 573
-230 817 0 221 33 429 100 631 142 426 404 679 841 811 226 68 367 86 639 81
176 -3 220 -7 310 -28z"/>
<path d="M3041 2920 c-24 -5 -46 -12 -49 -15 -4 -3 23 -35 59 -70 l64 -65 64
64 65 65 -28 11 c-41 15 -125 20 -175 10z"/>
<path d="M2916 2867 c-17 -13 -11 -21 87 -123 l107 -109 109 109 c98 98 108
111 93 122 -15 11 -29 2 -107 -76 l-90 -90 -90 90 c-82 82 -92 89 -109 77z"/>
<path d="M2840 2805 c-12 -14 0 -29 96 -126 l109 -109 -110 -110 c-104 -104
-109 -111 -92 -127 16 -17 24 -11 142 107 l125 125 -128 128 c-114 114 -130
126 -142 112z"/>
<path d="M3240 2695 l-125 -125 125 -125 c69 -69 128 -125 131 -125 4 0 10 8
13 17 5 12 -21 45 -100 124 l-107 107 104 107 c57 58 105 110 107 114 1 4 -3
13 -11 19 -10 9 -40 -16 -137 -113z"/>
<path d="M2779 2696 c-27 -63 -30 -170 -5 -243 10 -29 21 -53 25 -53 3 0 45
38 91 85 l85 85 -87 87 -87 87 -22 -48z"/>
<path d="M3337 2653 l-87 -88 88 -88 89 -88 19 48 c27 67 26 202 -1 261 l-20
43 -88 -88z"/>
<path d="M3007 2392 c-96 -97 -106 -110 -92 -122 14 -12 27 -2 106 76 l89 89
89 -89 c82 -81 90 -87 111 -76 22 12 19 16 -86 121 -60 60 -109 109 -109 109
0 0 -49 -49 -108 -108z"/>
<path d="M3041 2296 l-63 -63 46 -12 c56 -14 129 -14 180 0 l39 11 -64 64
c-35 35 -66 64 -69 64 -3 0 -34 -29 -69 -64z"/>
<path d="M2970 1666 l0 -346 110 0 110 0 0 40 0 40 -65 0 -65 0 -2 303 -3 302
-42 3 -43 3 0 -345z"/>
<path d="M3257 2003 c-4 -3 -7 -159 -7 -345 l0 -338 110 0 110 0 0 40 0 40
-65 0 -65 0 0 305 0 305 -38 0 c-21 0 -42 -3 -45 -7z"/>
<path d="M2116 1983 c2 -10 22 -153 44 -318 23 -165 43 -310 46 -322 4 -20 11
-23 49 -23 52 0 48 -12 71 182 10 81 20 146 22 144 2 -2 12 -66 23 -143 28
-198 22 -183 74 -183 52 0 42 -39 90 335 19 149 37 287 41 308 l6 37 -45 0
c-52 0 -45 18 -73 -202 -10 -76 -19 -136 -21 -134 -3 2 -13 64 -24 138 -31
219 -23 198 -73 198 -50 0 -42 23 -72 -208 -9 -73 -18 -131 -20 -129 -2 2 -13
68 -24 148 -29 205 -23 189 -74 189 -37 0 -43 -3 -40 -17z"/>
<path d="M2660 1990 c0 -10 -84 -574 -95 -637 l-6 -33 44 0 45 0 11 83 c23
160 17 147 71 147 57 0 54 6 71 -132 l12 -98 44 0 c24 0 43 3 43 8 1 4 -25
157 -57 340 l-57 332 -63 0 c-36 0 -63 -4 -63 -10z"/>
<path d="M3540 1660 l0 -340 110 0 110 0 0 40 0 40 -65 0 -65 0 0 140 0 140
65 0 65 0 0 45 0 45 -65 0 -65 0 0 70 0 70 65 0 65 0 0 45 0 45 -110 0 -110 0
0 -340z"/>
<path d="M3820 1660 l0 -340 40 0 40 0 2 183 c2 105 7 182 12 182 8 0 59 -175
100 -337 6 -25 11 -28 51 -28 44 0 45 1 39 28 -4 15 -33 124 -65 242 l-58 215
45 94 c24 51 44 95 44 97 0 2 -24 4 -52 4 l-53 0 -30 -73 -30 -72 -3 73 -3 72
-39 0 -40 0 0 -340z"/>
</g>
</svg>
